<?xml version="1.0" encoding="UTF-8"?>
<svg xmlns="http://www.w3.org/2000/svg" viewBox="0 0 256 256" width="100%" height="100%">
  <path d="M202.4,110.5c-2.6-13.1-8.5-18-12.3-19.8-.7-1.1-1.3-2.7-1.2-5.1v-1.6c0-.9.1-1.8.1-2.7,0-39.3-27.3-71.3-60.8-71.3s-60.9,32-60.9,71.3,0,1.7,0,2.6c0,.4,0,.9,0,1.8,0,3.3-1,5.2-2,6.1-.4.3-.8.6-1.2.9h0c-3.4,2.7-7.2,7.9-9.1,17.8-3,15.5,6.1,31.3,8.1,34,5.8,7.7,11.5,10.7,17.8,11.1,10.8.6,15.9-.8,21.4-9.9,7.9,4.4,16.7,6.8,26,6.8s18.6-2.6,26.7-7.2c5.6,9.4,10.7,10.9,21.6,10.3,6.3-.4,12-3.4,17.8-11.1,1.9-2.7,11.1-18.5,8.1-34ZM128.1,148.5c-28,0-51.3-24.1-56-55.7,5.3.9,11.8,1.3,17.6,1.3,23.6,0,47.4-11.4,58.2-37,8.7,20.3,20.6,30.3,36.5,33.2-3.7,32.8-27.5,58.2-56.3,58.2ZM127.1,184.9h-22.7s-12.3-18.4-11.6-20.9c.7-2.6,8.3-7.4,10.9-7.2s9.4,16.9,23.4,16.9v11.2ZM129.3,184.9h22.7s12.3-18.4,11.6-20.9c-.7-2.6-8.3-7.4-10.9-7.2-2.6.2-9.4,16.9-23.4,16.9v11.2ZM160.8,233.7c0,6.7-5.5,12.2-12.2,12.2h-40.5c-6.7,0-12.2-5.5-12.2-12.2h0c0-6.7,5.5-12.2,12.2-12.2h40.5c6.8,0,12.2,5.5,12.2,12.2h0ZM70.3,164.2s-21.8-3.5-39.5,35.1c0,0-6.3,8.4,13.2,17.2s32.3,23.5,33.7,29.1,7.8-41.5,7.2-50.2c-.5-8.7-4.1-24.7-14.6-31.2ZM185.7,164.2s21.8-3.5,39.5,35.1c0,0,6.3,8.4-13.2,17.2s-32.3,23.5-33.7,29.1-7.8-41.5-7.2-50.2c.5-8.7,4.1-24.7,14.6-31.2Z" fill="currentColor"/>
</svg>